<svg xmlns="http://www.w3.org/2000/svg" width="29.786" height="20" viewBox="0 0 29.786 20">
  <path id="icon" d="M31.483,19.785H8.3a3.308,3.308,0,0,0-3.3,3.3V36.481a3.308,3.308,0,0,0,3.3,3.3H31.483a3.308,3.308,0,0,0,3.3-3.3V23.089A3.308,3.308,0,0,0,31.483,19.785ZM8.3,21.44H31.483c.035,0,.068.008.1.011l-8.04,6.978c-2.521,2.188-4.792,2.186-7.358,0L8.2,21.451C8.233,21.448,8.267,21.44,8.3,21.44ZM33.132,36.481a1.651,1.651,0,0,1-1.649,1.65H8.3a1.651,1.651,0,0,1-1.649-1.65V23.089a1.637,1.637,0,0,1,.142-.664l8.31,7.258a7.41,7.41,0,0,0,4.78,2.034,7.262,7.262,0,0,0,4.743-2.04l8.358-7.255a1.637,1.637,0,0,1,.143.666Z" transform="translate(-5 -19.785)" fill="#fff"/>
</svg>
