<svg xmlns="http://www.w3.org/2000/svg" xmlns:xlink="http://www.w3.org/1999/xlink" width="52.87" height="61.721" viewBox="0 0 52.87 61.721">
  <defs>
    <linearGradient id="linear-gradient" x2="1" y2="1.029" gradientUnits="objectBoundingBox">
      <stop offset="0" stop-color="#98caf5"/>
      <stop offset="1" stop-color="#fab6b0"/>
    </linearGradient>
  </defs>
  <path id="icon" d="M-560.488,14569.721h0Zm-12.312,0a.48.48,0,0,1-.357-.159.479.479,0,0,1-.123-.371l.561-5.689-1.695-10.561a3.265,3.265,0,0,1,.458-2.253l9.225-14.719a.483.483,0,0,1,.331-.221.473.473,0,0,1,.386.105,6.082,6.082,0,0,1,2.128,3.619,6.083,6.083,0,0,1-.724,4.138l-3.149,5.456,1.409,1.912,6.43-10.14-1.909-13.583a6.012,6.012,0,0,1,.525-3.425,6.027,6.027,0,0,1,2.326-2.568,1.852,1.852,0,0,1,1.753-.093,1.825,1.825,0,0,1,1.031,1.387l3.057,20.487a.487.487,0,0,1-.04.274l-9.485,20.388.652,5.476a.487.487,0,0,1-.118.378.484.484,0,0,1-.361.161Zm-.337-18.52a2.305,2.305,0,0,0-.323,1.592l1.7,10.617a.486.486,0,0,1,0,.123l-.516,5.223h11.235l-.6-5.071a.48.48,0,0,1,.042-.261l9.481-20.385-3.037-20.344a.852.852,0,0,0-.488-.656.882.882,0,0,0-.843.047,5.072,5.072,0,0,0-1.954,2.159,5.056,5.056,0,0,0-.439,2.878l1.933,13.76a.48.48,0,0,1-.07.324l-6.9,10.884a.482.482,0,0,1-.39.224.455.455,0,0,1-.405-.2l-2.014-2.732a.484.484,0,0,1-.03-.527l3.306-5.729a5.122,5.122,0,0,0,.653-3.208,5.122,5.122,0,0,0-1.424-2.948Zm-21.508,18.52a.484.484,0,0,1-.36-.161.485.485,0,0,1-.118-.378l.651-5.476-9.484-20.393a.477.477,0,0,1-.04-.274l3.057-20.486h0a1.824,1.824,0,0,1,1.032-1.387,1.847,1.847,0,0,1,1.752.1,6.024,6.024,0,0,1,2.326,2.568,6.018,6.018,0,0,1,.523,3.426l-1.908,13.582,6.432,10.14,1.409-1.911-3.149-5.457a6.083,6.083,0,0,1-.723-4.137,6.084,6.084,0,0,1,2.129-3.62.469.469,0,0,1,.383-.1.48.48,0,0,1,.332.22l9.223,14.719a3.269,3.269,0,0,1,.458,2.254l-1.695,10.559.561,5.689a.481.481,0,0,1-.123.372.478.478,0,0,1-.359.157h-12.309Zm-4.851-47.685a.854.854,0,0,0-.487.657l-3.037,20.345,9.481,20.383a.485.485,0,0,1,.042.261l-.6,5.074h11.235l-.516-5.225a.5.5,0,0,1,0-.124l1.7-10.616h0a2.3,2.3,0,0,0-.323-1.59l-8.916-14.229a5.127,5.127,0,0,0-1.424,2.949,5.119,5.119,0,0,0,.653,3.208l3.306,5.729a.484.484,0,0,1-.03.528l-2.014,2.731a.469.469,0,0,1-.405.2.482.482,0,0,1-.39-.223l-6.906-10.887a.48.48,0,0,1-.07-.325l1.933-13.758a5.058,5.058,0,0,0-.44-2.878,5.052,5.052,0,0,0-1.953-2.158.877.877,0,0,0-.466-.134A.884.884,0,0,0-599.5,14522.036Zm23.188,11.583h-2.517a1.327,1.327,0,0,1-1.326-1.325v-.058a.109.109,0,0,0-.033-.079.106.106,0,0,0-.078-.031h-12.1a.483.483,0,0,1-.482-.484V14512.8a.482.482,0,0,1,.482-.482h2.482v-2.356a.482.482,0,0,1,.255-.425,13.062,13.062,0,0,1,12.07-.123,13.062,13.062,0,0,1,12.07.123.482.482,0,0,1,.255.425v2.356h2.463a.481.481,0,0,1,.341.142.482.482,0,0,1,.141.341v18.838a.485.485,0,0,1-.141.342.487.487,0,0,1-.341.143h-12.1a.11.11,0,0,0-.111.11v.058a1.329,1.329,0,0,1-1.33,1.325Zm-15.574-2.46h11.621a1.078,1.078,0,0,1,1.075,1.077v.058a.358.358,0,0,0,.1.257.363.363,0,0,0,.257.1h2.516a.364.364,0,0,0,.367-.36v-.058a1.078,1.078,0,0,1,1.075-1.077h11.615v-17.874h-1.981v15.918a.481.481,0,0,1-.141.341.482.482,0,0,1-.341.143h0a.488.488,0,0,1-.227-.057,12.092,12.092,0,0,0-11.313-.044.493.493,0,0,1-.271.1h-.024a.482.482,0,0,1-.265-.068.512.512,0,0,1-.052-.036,12.1,12.1,0,0,0-11.308.048.482.482,0,0,1-.475-.012.484.484,0,0,1-.234-.414v-15.919h-2Zm2.964-2.731a13.074,13.074,0,0,1,5.444-1.187h0a13.054,13.054,0,0,1,5.426,1.181v-18.172a12.1,12.1,0,0,0-10.87.008v2.518c0,.01,0,.02,0,.028s0,.019,0,.028Zm17.278-1.187a13.074,13.074,0,0,1,5.444,1.186v-15.595c0-.01,0-.019,0-.028s0-.019,0-.028v-2.518a12.1,12.1,0,0,0-10.87-.008v18.17a13.073,13.073,0,0,1,5.424-1.179Zm-4.041-3.853a.482.482,0,0,1,.295-.615,11.136,11.136,0,0,1,7.492,0,.48.48,0,0,1,.315.535.482.482,0,0,1-.475.4.5.5,0,0,1-.16-.025,10.161,10.161,0,0,0-6.85,0,.481.481,0,0,1-.16.027A.483.483,0,0,1-575.681,14523.389Zm-11.834,0a.482.482,0,0,1,.295-.615,11.137,11.137,0,0,1,7.492,0,.481.481,0,0,1,.315.535.481.481,0,0,1-.475.4.5.5,0,0,1-.16-.025,10.161,10.161,0,0,0-6.851,0,.482.482,0,0,1-.16.027A.484.484,0,0,1-587.515,14523.389Zm12.074-4.619a.487.487,0,0,1-.254-.277.487.487,0,0,1,.023-.376.482.482,0,0,1,.285-.244,11.136,11.136,0,0,1,7.492,0,.481.481,0,0,1,.315.536.48.48,0,0,1-.475.4h0a.473.473,0,0,1-.16-.026,10.173,10.173,0,0,0-6.85,0,.483.483,0,0,1-.174.032A.481.481,0,0,1-575.44,14518.77Zm-12.094-.363a.483.483,0,0,1,.315-.535,11.137,11.137,0,0,1,7.492,0,.482.482,0,0,1,.281.611.482.482,0,0,1-.6.3,10.161,10.161,0,0,0-6.851,0,.5.5,0,0,1-.161.027A.482.482,0,0,1-587.535,14518.406Zm12.094-4.539a.485.485,0,0,1-.254-.279.483.483,0,0,1,.023-.374.49.49,0,0,1,.285-.245,11.125,11.125,0,0,1,7.492,0,.483.483,0,0,1,.313.536.48.48,0,0,1-.474.4.5.5,0,0,1-.16-.026,10.161,10.161,0,0,0-6.85,0,.483.483,0,0,1-.173.032A.481.481,0,0,1-575.44,14513.867Zm-11.833,0a.486.486,0,0,1-.253-.279.479.479,0,0,1,.023-.374.489.489,0,0,1,.284-.245,11.126,11.126,0,0,1,7.492,0,.484.484,0,0,1,.314.536.482.482,0,0,1-.474.4.5.5,0,0,1-.16-.026,10.161,10.161,0,0,0-6.851,0,.482.482,0,0,1-.173.032A.482.482,0,0,1-587.274,14513.867Z" transform="translate(604.001 -14508)" fill="url(#linear-gradient)"/>
</svg>
